<?xml version="1.0" encoding="utf-8"?>
<!-- Generator: Adobe Illustrator 16.0.0, SVG Export Plug-In . SVG Version: 6.00 Build 0)  -->
<!DOCTYPE svg PUBLIC "-//W3C//DTD SVG 1.1//EN" "http://www.w3.org/Graphics/SVG/1.1/DTD/svg11.dtd">
<svg version="1.1" id="Layer_1" xmlns="http://www.w3.org/2000/svg" xmlns:xlink="http://www.w3.org/1999/xlink" x="0px" y="0px"
	 width="3006.5px" height="2000px" viewBox="0 0 3006.5 2000" style="enable-background:new 0 0 3006.5 2000;" xml:space="preserve"
	>
<style type="text/css">
<![CDATA[
	.st0{fill:#49484C;}
	.st1{display:none;fill:#FFFFFF;}
	.st2{opacity:0.77;fill:#3D3D6B;}
	.st3{opacity:0.32;}
	.st4{opacity:0.47;}
	.st5{opacity:0.77;}
	.st6{fill:#B33B69;}
	.st7{fill:#892959;}
	.st8{fill:#EFECF7;}
	.st9{fill:#56548C;}
	.st10{fill:#BC4676;}
	.st11{fill:#F7668B;}
	.st12{fill:#F8BD8C;}
	.st13{clip-path:url(#SVGID_2_);}
	.st14{fill:url(#SVGID_3_);}
	.st15{fill:url(#SVGID_4_);}
	.st16{fill:#9794D3;}
	.st17{fill:#FE6E8D;}
	.st18{fill:#FFFFFF;}
	.st19{fill:#CCCDCE;}
	.st20{fill:#3D3C3B;}
	.st21{fill:#3D3D6B;}
	.st22{fill:#755CCD;}
	.st23{fill:#A8A1E2;}
]]>
</style>
<rect class="st1" width="3006.5" height="2000"/>
<g>
	<g>
		<path class="st8" d="M522.9,1723.4c-10.9-25.8-439.2-352.1-103.8-736c73.3-83.9,141.3-177.2,176-284.4
			c30.8-95.3-14.4-259.3,53.3-331.6c31.2-33.3,74.9-51.4,117.7-66.9c440.3-159.6,933-138.7,1362,46.4
			c185.6,80.1,616.8,253.4,620.3,513.5c0.5,33.9-9.8,63.8-22.6,94.6c-25.8,62.4-185.8,196.5-283.8,268.8
			c-98.1,72.2-191.2,57.7-72.5,186.7s238.1,168.6,129.2,259.7c-108.9,91.1-1868.1,110.9-1868.1,110.9L522.9,1723.4z"/>
		<g>
			<defs>
				<path id="SVGID_1_" d="M515.8,1729.8C505,1703.9,76.3,1377.4,412,993.1c73.4-84,141.4-177.4,176.1-284.6
					c30.9-95.4-14.4-259.6,53.4-331.9c31.2-33.3,75-51.4,117.8-67c440.7-159.8,933.9-138.8,1363.2,46.5
					c185.7,80.1,617.4,253.6,620.9,514c0.5,33.9-9.8,63.9-22.6,94.7c-25.8,62.4-185.9,196.7-284.1,269
					c-98.1,72.3-186,51.7-67.1,180.8s237.1,166.1,124,266.1c-106.5,94.1-1869.8,111-1869.8,111L515.8,1729.8z"/>
			</defs>
			<clipPath id="SVGID_2_">
				<use xlink:href="#SVGID_1_"  style="overflow:visible;"/>
			</clipPath>
			<g class="st13">
				<path class="st19" d="M406.8,836.1c0,0,408.1-98.1,625,93s323.2,340.9,512.8,361.6c189.7,20.7,535.7-251.6,628.7-324.7
					s196.3-103.9,392.6,102.6c196.3,206.6-56.8,645.6-56.8,645.6l-1359.6,67.4L421,1750.3l-267.3-681.7L406.8,836.1z"/>
			</g>
		</g>
	</g>
	<g>
		<path class="st16" d="M2683.4,1857.8c-0.8,0-21.9,0-59.5,0c-285.9,0-1524.9,0-2029,0H432.6c-33.7,0-52.2,0-52.2,0
			c88.8-113.8,243.7-138.9,373.2-150.3c84.5-7.4,167,5.4,251.5,5.3c88-0.1,179.4,16.7,267.3,12.2c281.5-14.2,559-63.4,841.1-62.2
			c108.3,0.5,211.2-0.4,312.9,32.9c12.7,4.1,25.3,8.8,37.9,14.1c42,17.5,84.3,36,121,63C2596.7,1781.2,2676.6,1853.6,2683.4,1857.8z
			"/>
		<g>
			<path class="st23" d="M2539.2,1857.8c-0.8,0-21.9,0-59.6,0c-286.2,0-1526.3,0-2030.8,0c84.6-72,188.8-94.2,280.4-106.2
				c84.6-11.1,169.8,18,254.4,17.8c88.1-0.2,178.4,24.7,266.3,18.1c281.8-21.3,558-104.6,840.4-102.8c65.6,0.4,129.2,0.1,191.7,10.8
				c12.7,4.1,25.3,8.8,38,14.1c42,17.5,84.4,36,121.1,63C2452.5,1781.1,2532.4,1853.6,2539.2,1857.8z"/>
		</g>
	</g>
	<g>
		<g>
			<path class="st18" d="M2433.5,500.3c-93.3-10.8-109.9,31.4-199.4-51.2c-113.9-105.1-266.3-40.9-378.6,24.6
				c-44.9,26.2-90,46.5-141.9,52.8c-39.7,4.8-78.8,5-116.8,19.3c-3,1.1-30,18.6-51.9,34.1H2604
				C2565.2,551.6,2495.9,507.5,2433.5,500.3z"/>
		</g>
		<g>
			<path class="st18" d="M794.8,528.3c0,0,560.7,0,561.2,0c-1.6,0-8.9-10.3-10.1-11.6c-9.8-10.2-20.9-19.2-32.8-26.9
				c-32.7-21-72-22.5-105.5-42.8c-22.9-13.9-43.1-32.3-67.3-43.8c-37.6-17.8-82.1-16.8-122-4.8c-38.8,11.6-74.8,32.8-107.7,56.1
				c-26.9,19-53.8,45.5-87.4,51.5C799.1,510.2,794.8,528.3,794.8,528.3z"/>
		</g>
	</g>
	<g>
		<g class="st3">
			<path class="st0" d="M1288.7,1821.6c-9,1.4-18.9,1.2-27.7,1.6c-15.1,0.6-30.2,1.2-45.3,1.6c-36,1-72.2,1.8-108.2-0.5
				c-15.1-1-36.6-0.9-49.5-6.6c-11-4.9-9.1-12,1.7-16.3c13.3-5.4,95.2-11.8,95.2-11.8c16.8-1.1,33.6-2,50.4-2.6
				c24.7-0.9,53.1-4.5,76.9,1.8c14.8,3.9,37.1,22.4,16.8,30.4C1295.8,1820.2,1292.3,1821,1288.7,1821.6z"/>
		</g>
		<g class="st3">
			<path class="st0" d="M1936.7,1798.6c-9.8,1.8-20.7,1.6-30.4,2c-16.5,0.8-33.1,1.5-49.6,2c-39.5,1.3-79.2,2.3-118.6-0.7
				c-16.6-1.3-40.1-1.2-54.3-8.6c-12-6.3-10-15.6,1.8-21.3c14.6-7,104.4-15.4,104.4-15.4c18.4-1.5,36.8-2.6,55.3-3.4
				c27.1-1.2,58.2-5.8,84.3,2.3c16.2,5,40.7,29.2,18.4,39.5C1944.5,1796.7,1940.7,1797.8,1936.7,1798.6z"/>
		</g>
	</g>
	<g>
		<linearGradient id="SVGID_3_" gradientUnits="userSpaceOnUse" x1="486.0684" y1="1512.5234" x2="565.346" y2="429.0565">
			<stop  offset="0" style="stop-color:#C49BC9"/>
			<stop  offset="0.118" style="stop-color:#BB99C8"/>
			<stop  offset="0.3092" style="stop-color:#A392C7"/>
			<stop  offset="0.4919" style="stop-color:#868BC5"/>
			<stop  offset="0.9757" style="stop-color:#7FB4E7"/>
		</linearGradient>
		<path class="st14" d="M382.9,828c0.3-0.4,0.7-0.8,1-1.1c21.1-25.2,13.2-63.1,2.2-94.1c-12.9-36.6-26.8-107.3-7.3-143.8
			c27.2-51.1,70.6-73,133.1-73.4c73.4-0.5,124.2,48.1,132.6,111c7.5,55.5-22.9,127.1,24,171.6c11.5,10.9,26.3,17.7,40.3,25
			c36,18.8,71.7,45.6,82.5,84.7c11.2,40.2-6.7,82-20.7,121.4c-24.8,69.4,5.5,109,12.5,175.8c6.5,62.1-15.8,122.2-65.4,161.3
			c-52.1,41.1-119,57.5-183.8,71.5c-35.9,7.8-73.3,15.1-109.1,6.8c-83.1-19.4-164.4-137.5-105.8-215.3
			c24.9-33.1,68.3-56.1,69.6-102.2c0.2-6.8-0.6-13.8-4-19.7c-4-7.1-11.2-11.8-18.4-15.9c-23.7-13.4-49.6-22.6-72.4-37.3
			c-90.9-58.4-32-159.6,44-198.4C353.6,847.6,371.2,841.2,382.9,828z"/>
		<g>
			<path class="st21" d="M670.6,1263.4c-8.6,50.8-28.8,88-58.2,131.4c-12.9,19.1-11.5,37.5-12.6,62.2c-2.7,58.6-7.4,117-13.6,175.3
				c-2.9,27.5-6.5,55-9.8,82.4c-0.6,4.6-0.6,15.3-2.5,24.1c-33.6,9.6-66.3,22.3-96.5,39c-1,0.4-2.1,0.8-3.1,1.2
				c-0.1-10.7,2.3-29.1,2.6-30.9c10.7-66.5,27.9-133.2,39.1-200.2c11.4-68.4,14.7-138.1,14.7-207.4c0-30.6-0.8-61.3-2.3-91.9
				c-33.5-33.5-61.3-71.8-85.2-113.5c-9.8-17,9.6-20.6,19.4-3.6c16.8,29.2,43.2,58.2,64.6,83.3c-1.7-24.5-5.4-62.3-6.6-86.8
				c-0.5-10-1-20.2-1-30.6c-28.2-23.6-52.5-54.2-64.7-90c-6.3-18.6,17-17,23.2,1.6c7.7,22.4,25.4,39.7,44,50.5
				c0.7-4.3,1.6-8.2,2.6-12.3c4.9-13.7,24.5-24.7,28.8-6.5c14.2,61.2,20,153.2,30.4,219.1c15.6-34.9,37-103.8,37.2-145.6
				c0-19.7,25.4-24.7,25.4-5.1c-0.3,64.1-24.1,138.1-50.8,196c0.3,19.2,2.8,39.3,4.3,57.8c22.8-24.3,46.8-75.1,52.8-110.9
				C655.8,1232.9,673.9,1244.1,670.6,1263.4z"/>
		</g>
	</g>
	<linearGradient id="SVGID_4_" gradientUnits="userSpaceOnUse" x1="2239.0703" y1="1470.1631" x2="2287.3003" y2="1737.334">
		<stop  offset="0" style="stop-color:#BA9BC9"/>
		<stop  offset="1" style="stop-color:#1B1464"/>
	</linearGradient>
	<path class="st15" d="M2432.1,1643.6c-3.4,14.1-12.2,26.2-22,36.9c-1.8,1.9-3.6,3.8-6,4.9c-2.4,1.1-5,1.2-7.6,1.3
		c-0.2,0-0.4,0-0.6,0c-91.8-24.1-184.8-23.4-282.3-23.9h-0.6c-0.3-1.1-0.6-2.2-1-3.3c-1.6-3.9-4.3-7.3-6-11.1
		c-6.8-14.8,2.3-33,15.9-41.9c13.7-8.9,30.6-10.8,46.8-12.6c2.1-0.2,4.3-0.5,5.8-1.9c1.9-1.8,2.1-4.8,2.2-7.4
		c0.6-16,5-32.6,15.7-44.5c9-10,21.8-16,34.8-19.4c25-6.7,52.2-4.8,76,5.2c15,6.3,32.7,19.9,33,38.1c0,0.9,30.3,5.8,33.3,6.4
		c6.3,1.3,12.5,2.8,18.5,4.8c11.8,3.9,23.1,9.8,31.5,19.1C2431.3,1607.3,2436.2,1626.4,2432.1,1643.6z"/>
	<g>
		<path class="st12" d="M1243.9,1084c-2-3.2,0-55.1,0-55.1l-45.3-21.8v49.9C1198.6,1057.1,1245.9,1087.2,1243.9,1084z"/>
		<g>
			<path class="st12" d="M1218.2,1175.3c0,0,42.2,90.4,62.4,105.4c3.1,2.3,7.5,1.3,10.9,0.2c5.9-1.9,11.4-5.2,16.5-8.6
				c7-4.5,13.6-9.6,20.1-14.8c7.4-5.9,14.5-12.1,21.5-18.4c7.1-6.3,14-12.8,20.9-19.4c6.1-5.9,12.2-11.8,18.2-17.8
				c4-4,8.1-8,12-12.2c2.7-2.9,6.1-5.3,8.1-8.9c2-3.6,0.2-10.6-2.7-13.5c-3.8-3.8-5.9-6.1-10.7-8.7c-5.7-3.1-11.8-1-17.5,1.1
				c0.9-0.3-2.4-4.2-3.3-4.3c-1.3-0.2-3.4,0.2-4.4,1c-1,0.9-1.5,2.2-1.8,3.6c-0.9,4.1-2.5,7.9-3.2,12.1c-0.7,4.4,0.1,8.6,0.6,13
				c0,0-65.2,55.3-66.9,48.8c-0.6-2.3-23.2-60.5-30.7-72.9L1218.2,1175.3z"/>
		</g>
		<g>
			<path class="st12" d="M1117,1130.3c0,0-56.2,41-59,57.7s0.4,20.1,3.6,21.3c3.2,1.2,99.8,49.9,99.8,49.9l2.2-22
				c0,0-55.7-41.7-63.8-44.7c0,0,34.6-21.6,40.3-29C1145.6,1156.3,1117,1130.3,1117,1130.3z"/>
		</g>
		<g>
			<path class="st12" d="M1143.4,1236.8c0,0,8.6,14.2,0,40.5h101.6c0,0-9-23.7-6-30.6S1143.4,1236.8,1143.4,1236.8z"/>
		</g>
		<g>
			<path class="st22" d="M1142.9,1170.7c0,0-14,67.2-27.5,78.6c0,0,122.6,5.1,140.7,3.9l15.9,0.2l-48.6-91.9L1142.9,1170.7z"/>
		</g>
		<g>
			<path class="st12" d="M1218.2,1175.3c0,0,42.2,90.4,62.4,105.4c3.1,2.3,7.5,1.3,10.9,0.2c5.9-1.9,11.4-5.2,16.5-8.6
				c7-4.5,13.6-9.6,20.1-14.8c7.4-5.9,14.5-12.1,21.5-18.4c7.1-6.3,14-12.8,20.9-19.4c6.1-5.9,12.2-11.8,18.2-17.8
				c4-4,8.1-8,12-12.2c2.7-2.9,6.1-5.3,8.1-8.9c2-3.6,0.2-10.6-2.7-13.5c-3.8-3.8-5.9-6.1-10.7-8.7c-5.7-3.1-11.8-1-17.5,1.1
				c0.9-0.3-2.4-4.2-3.3-4.3c-1.3-0.2-3.4,0.2-4.4,1c-1,0.9-1.5,2.2-1.8,3.6c-0.9,4.1-2.5,7.9-3.2,12.1c-0.7,4.4,0.1,8.6,0.6,13
				c0,0-65.2,55.3-66.9,48.8c-0.6-2.3-23.2-60.5-30.7-72.9L1218.2,1175.3z"/>
		</g>
		<g>
			<path class="st22" d="M1080.7,1129.9c0,0,80.6-41.8,114.3-71.5c0,0,11.6-11.7,34.2,6.6c22.5,18.3,59.8,84.6,59.8,84.6l2.2,3.3
				l-67.1,42.5l-12.6-21l-68.6,4.1l-9.7,5.1C1133.2,1183.7,1104.8,1139,1080.7,1129.9z"/>
		</g>
		<g>
			<path class="st12" d="M1100.3,1409.9c0,0-26.3,62.8-31.4,82.2c0,0-47.5-6.9-143.5,66l-41.4,23.5l-6.2,21.8
				c0,0,21.2,11.5,24.1,11.5c2.9,0,2.3-4.6,4.6-5.7s171-70.6,185.9-76.3c14.9-5.7,67.7-61.4,72.3-84.4
				C1169.3,1425.5,1100.3,1409.9,1100.3,1409.9z"/>
		</g>
		<g>
			<path class="st12" d="M1211.8,1452.7c0,0,53.9,80.7,58,86.4c4,5.7,4,5.7,4,5.7s-25.8,27.5-46.5,138.3L1217,1746l39.2-12.1
				c0,0,59-166.1,65.9-174.2c6.9-8-35.6-146.3-35.6-146.3L1211.8,1452.7z"/>
		</g>
		<g>
			<path class="st6" d="M1180.4,1419.3l-6.5,33.1c0,0-52.9,7.7-93.8-63.3l45.6-75.1L1180.4,1419.3z"/>
		</g>
		<g>
			<path class="st17" d="M1246.8,1277.3l44.4,131.6c0,0-0.8,38.4-90.3,50.5l-36-58.5c0,0-82.2-22-28-107.6l1.7-18.4L1246.8,1277.3z"
				/>
		</g>
		<g>
			<g>
				<path class="st20" d="M1322.2,1788.4c0.1,3.7-1.9,6.7-6.4,11c-7.9,7.5-25.6,3.8-35,2.2c-12.4-2.1-24.5-5.6-37.1-6.7
					c-10.5-0.9-38.7,5.6-44.2-7.5c-2.8-6.7-0.1-13.6,2.2-17.7c0.6,3.8,1.7,4.6,3.8,5.6c3.2,1.4,22.7-0.6,35,2.3
					c12.3,2.9,41,11.5,52.2,15.8c7.3,2.8,19.8,3.8,26.4-1.3C1320.8,1790.9,1321.7,1789.7,1322.2,1788.4z"/>
			</g>
			<g>
				<path class="st22" d="M1292.9,1793.3c-11.2-4.3-39.9-12.9-52.2-15.8c-12.3-2.9-31.8-0.9-35-2.3c-2.4-1.1-3.5-2-4-7.5
					c-0.1-0.7-0.1-1.4-0.2-2.2c-0.1-1.2-0.1-2.5-0.2-4.1c-0.3-11.2,14.1-33.6,14.1-33.6s11.5,11.2,15.8,11.2s10.6,0,19.5-8.6
					c8.9-8.6,19.5-2.3,22.7-1.4c3.2,0.9,4.9,12.3,5.7,14c1.7,3.4,4.7,6.7,8.2,9.9c2,1.8,4.2,3.6,6.5,5.3c1,0.8,2.1,1.6,3.2,2.3
					c2.5,1.7,4.9,3.4,7.3,5c0.9,0.6,1.8,1.2,2.7,1.8c2.6,1.8,5,3.5,6.9,5c0.1,0.1,0.1,0.1,0.2,0.1c5.5,4.4,13.3,13.3,5.3,19.5
					C1312.7,1797.2,1300.2,1796.1,1292.9,1793.3z"/>
			</g>
			<g>
				<path class="st20" d="M1293.9,1758.3l-19.4,5.8c-1.8,0.5-3.7-0.5-4.3-2.3c-0.1-0.3-0.1-0.6-0.1-1c0-1.5,1-2.9,2.5-3.3l14.9-4.4
					C1289.4,1754.8,1291.6,1756.6,1293.9,1758.3z"/>
			</g>
			<g>
				<path class="st20" d="M1304.3,1765.6l-18.8,5.6c-1.8,0.5-3.8-0.5-4.3-2.3c-0.1-0.3-0.1-0.7-0.1-1c0-1.5,1-2.9,2.5-3.3l13.5-4
					C1299.5,1762.3,1302,1764,1304.3,1765.6z"/>
			</g>
			<g>
				<path class="st20" d="M1314,1772.5l-18.2,5.4c-1.8,0.5-3.8-0.5-4.3-2.3c-0.1-0.3-0.1-0.7-0.1-1c0-1.5,1-2.9,2.5-3.3l13.1-3.9
					c2.6,1.8,5,3.5,6.9,5C1313.9,1772.4,1314,1772.5,1314,1772.5z"/>
			</g>
		</g>
		<path class="st12" d="M1275.9,985.3c1.7-4.4-2.7-6.4-7.1-9c-6.2-14.9-10.5-28.4-23.9-39.9c-12.5-10.8-30.1-17.8-46.8-11.6
			c-23.5,8.8-32.1,40.5-19.3,70.9c2.6,6.3,6.1,12.1,10,17.3c15.2,20,45.5,29.8,63,20.5c10-5.3,10.5-3.9,15.2-14.3
			c3-6.6,7-18.3,5.7-29.7C1274,988.6,1275.1,987.3,1275.9,985.3z"/>
		<path class="st20" d="M1244,932.1c-0.6-3.2-0.5-6.6-0.4-10c0.1-2.7,0.1-5.5-0.1-8.2c-0.8-7.9-1.8-15.6-5.8-22.1
			c-4.1-6.7-12.6-11.2-20.2-14.7c-0.8-0.4-1.7,0-2.1,0.8c-0.3,0.8,0,1.7,0.8,2.1c7.2,3.3,15.1,7.4,18.9,13.4
			c3.7,6,4.6,13.2,5.3,20.8c0.2,2,0.2,4.1,0.2,6.2c-4.2-18.6-15.5-48.4-51.8-36c0,0-11.8,2.9-12.3,21.7c0-1.3-24-2.1-26.2-1.9
			c-7.9,0.6-16.1,3.6-20.7,10c-4.6,6.4-4.1,16.7,2.5,21.1c-8.6-0.8-17.3,0.1-25.6,2.3c-0.2,0-0.3,0-0.5,0
			c-23.3,1.8-35.7,13.5-41.9,22.9c-0.5,0.7-0.3,1.7,0.4,2.2c0.3,0.2,0.6,0.3,0.9,0.3c0.5,0,1-0.3,1.3-0.7
			c4.3-6.5,11.8-14.2,24.3-18.4c-4.7,2.5-9.1,5.7-12.4,9.8c-3.5,4.4-5.6,10-5.1,15.6c-11.9-1.2-24.5-0.8-35.6,4.3
			c-7.1,3.2-12.6,8.8-16.3,15.5c-3.8,6.9-5.8,14.6-7,22.3c-1.4,8.7,3.8,14.2,7.3,17.4c4,3.5,8.9,5.9,14,7.3
			c19.4,5.4-46.9,20.1-39.1,45.7c7.9,25.6,34.6,24.6,59.5,11.5c24.8-13.1,44.7-28.5,54.4-25.4c1,0.3,2.1,0.7,3.2,1.2
			c-17.3,4.8-43.8,22.7-65.4,39c-18.2,13.8-42.8,2.3-43.1,2.2c-0.8-0.4-1.7,0-2.1,0.7c-0.4,0.8,0,1.7,0.7,2.1c0.7,0.3,10.6,5,22.8,5
			c7.6,0,15.9-1.8,23.5-7.5c31.5-23.8,51.2-30.8,64.1-32.7c7.5,3.4,8.2,7.9,15.4,12.1c3.9,2.3,12.6-3.8,15.9-0.9
			c3.4,3,13.1,5.9,17.8,5.3c4.9-0.7,9.3-3.5,12.9-7c3.9-3.9,6.8-8.5,10.3-12.8c3.4-4.2,7.4-7.9,10.8-12.1c3.2-3.9,5.5-8.5,8.3-12.7
			c2.3-3.5,4.9-6.7,5.6-11c0.9-5.9-0.5-12-2.6-17.5c-1.5-4-5.5-13.4-10.4-18.2c-1.7,1.3-3.9,2.1-6.2,2.1c-5.7,0-10.4-4.6-10.4-10.4
			s4.6-10.4,10.4-10.4c0,0,0,0,0,0c0-0.1-0.1-2.7,9.5-8.4c13.3-7.8,19.6-23.5,17-30.9c-2.7-7.3,16.5-6.8,21.4-9.3
			c4.9-2.5,3.5-2.2,3.5-2.2c0-0.1-0.1-0.1-0.1-0.2C1243.7,933.4,1244.1,932.8,1244,932.1z"/>
		<g>
			<circle class="st20" cx="1256.8" cy="971.5" r="3.5"/>
		</g>
		<g>
			<path class="st20" d="M1262.2,957.6c0,0.2-6.7,0.3-7.3,0.3c-3.9,0.3-7.9,0.7-11.3,2.8c-1.5,0.9-2.6,2.2-3.6,3.5
				c-1,1.2-2,3-3.4,3.8c0-0.5,0.2-1,0.4-1.5c1-2.6,1.9-5.3,3.5-7.6c2.2-3.2,6.8-5.3,10.5-6.1
				C1254.6,951.9,1263.4,951.7,1262.2,957.6z"/>
		</g>
		<g class="st5">
			<path class="st21" d="M1259.4,1253.2l-3.3,0c-7.2,0.5-31.3,0-57.5-0.8l-0.1,0c0,0,30.2-17.4,28.5-58.8
				C1235.2,1209.9,1247.6,1234.1,1259.4,1253.2z"/>
		</g>
		<g>
			<path class="st21" d="M1133.2,1183.7c0,0-9.6-0.2-14.8-3.3l8.7-6.1L1133.2,1183.7z"/>
		</g>
		<g class="st5">
			<path class="st21" d="M1100.2,1143.2c-2.7,2.1-5.5,4.5-8.4,6.9c-1.6,0.8-11.2-20.2-11.2-20.2
				C1087.1,1132.4,1093.8,1137.3,1100.2,1143.2z"/>
		</g>
		<g>
			<path class="st21" d="M1291.2,1153c0,0-4.6,11.3-17.1,19.7l-3.2-6.8L1291.2,1153z"/>
		</g>
		<g>
			<g>
				<path class="st20" d="M888.7,1689.8c-0.2,1-0.6,2-1,2.9c-4.2,8.1-21.6-0.6-26.5-4.4c-7.2-5.7-10.6-19.9-12.8-28.4
					c-3.6-13.8-7.2-27.6-10.9-41.4c-2.5-9.3-8.2-17-11.3-25.8c-1.1-3.1,2.1-7.9,4.7-9.8c1.1-0.8,4-1.2,7-1.3
					c-0.1,0.1-0.2,0.3-0.2,0.4c-1.4,2.6,20.7,21.2,24.7,63.1c4,41.9,20.9,44.5,21.2,46.2c0,0.2,0,0.4-0.1,0.6
					c0.4-0.2,0.9-0.3,1.5-0.6C886.7,1690.8,887.9,1690.3,888.7,1689.8z"/>
			</g>
			<g>
				<path class="st22" d="M913.4,1620.4c-1,3.9-7.1,4.8-8.4,9c-0.3,0.8-0.7,3.8-1.3,7.9c-0.3,2-0.6,4.2-1,6.7
					c-0.2,1.6-0.5,3.3-0.8,5c-0.3,2.1-0.7,4.4-1.1,6.6c-0.3,1.4-0.5,2.8-0.8,4.2c-0.4,2.2-0.9,4.3-1.3,6.4
					c-2.2,10.1-5.1,19.1-8.7,22.2c0,0.4-0.7,0.8-1,1c-1.6,1.1-3.7,1.8-5.6,2.3c0.5-0.1-1.1-1.4-1.2-1.5c-0.8-0.5-1.6-1.1-2.4-1.6
					c-1.6-1.1-3.1-2.4-4.4-3.9c-3.4-3.8-5.8-8.5-7.6-13.3c-3.1-8.3-4.7-17.1-5.5-25.9c0-0.2,0-0.3,0-0.5
					c-4-41.9-26.1-60.5-24.7-63.1c1.4-2.6,2.6-5.7,14.6-8c12.1-2.3,38.5-2,38.5-2c-2.7,5.4-8.6,17.3-4.6,23.2c1,1.5,2.6,2.4,4.2,3.2
					c8.3,4.5,20.5,8.7,23,19.1C913.6,1618.6,913.6,1619.6,913.4,1620.4z"/>
			</g>
			<g>
				<path class="st20" d="M903.7,1637.3L903.7,1637.3c-0.3,2-0.6,4.3-1,6.7l-14.9-12.5c-1.2-1-1.4-2.8-0.4-4.1c0.6-0.7,1.4-1,2.2-1
					c0.7,0,1.3,0.2,1.8,0.7L903.7,1637.3z"/>
			</g>
			<g>
				<path class="st20" d="M902,1649c-0.3,2.1-0.7,4.4-1.1,6.6l-15.8-13.2c-1.2-1-1.4-2.9-0.4-4.1c0.6-0.7,1.4-1,2.2-1
					c0.7,0,1.3,0.2,1.8,0.7L902,1649z"/>
			</g>
			<g>
				<path class="st20" d="M900.1,1659.9c-0.4,2.2-0.9,4.3-1.3,6.4l-15-12.6c-1.2-1-1.4-2.8-0.4-4.1c0.6-0.7,1.4-1,2.2-1
					c0.7,0,1.3,0.2,1.9,0.7L900.1,1659.9z"/>
			</g>
		</g>
		<path class="st2" d="M1152.8,1123.5l-12,56.2l-7.5,3.9c0,0-10.2-16-23.5-30.7L1152.8,1123.5z"/>
	</g>
	<g>
		<g>
			<path class="st12" d="M1932.7,879c-2.2,2.6-4.4,3.1-6,3.9c-1.1,0.6-1.9,1.4-2,3.4c-0.3,4.7-5.9,9.9-6.4,8.6
				c-0.5-1.3,1.5-43.6,1.8-46.3c0,1.3,3.4,9.1,6.4,15.2c0.2,0.4,0.4,0.9,0.7,1.3C1930.4,870.4,1936.4,874.5,1932.7,879z"/>
		</g>
		<g>
			<path class="st12" d="M1986.2,1481.9c2.4-14-6.1-34.5-34.9-72.7c-3.6-4.7-7.2-9.7-11-14.9c-29,17.3-54.3,37.8-77,60.9
				c23.4,20.2,43.3,36.7,59.6,46.7c-8.1,16.6-16.7,37.9-22.6,62.4c-4.8,19.8-10.5,45.6-15.2,71.3c-6.3,35-10.8,69.8-8.5,89.3
				c1,9,3.4,14.8,7.9,15.8c5,1.2,10.8-3.9,16.8-12.7c11.9-17.4,24.9-49.6,35.3-78.2c6.4-17.6,11.9-33.9,15.5-44.7
				C1962.5,1574.1,1991.8,1511.2,1986.2,1481.9z"/>
		</g>
		<g>
			<path class="st12" d="M1677.3,1378.2c-18.2,41.2-32.3,74-35.1,96.2c-18.8,2.9-42.4,8.2-67.3,18c-21.4,8.4-49.3,20.1-75.5,32.6
				c-44.4,20.9-84,44-79,56.4c5.3,13.4,55.7,3,99.2-8.6c20.5-5.5,39.4-11.1,51.4-14.8c33.5-10.1,108.3-23.4,124.4-47.2
				c12-6.9,26.7-22.2,47.2-50.5c1.4-1.9,2.8-3.8,4.2-5.7C1726.2,1426.1,1708.8,1394.8,1677.3,1378.2z"/>
		</g>
		<g>
			<path class="st12" d="M1910.7,831.1c4.9,2.6-2.1-1.8,2.2,2.2c26.8,25.7,10.1,88.3-5.7,94.7c-5.8,2.4-20.3,0.9-25.7,10.2
				c-5.4,9.3-16.6,41.8-31.1,54l-41.3-50.7c2.1-4.5,4.2-9.1,6.2-13.6c2.4-5.3,8.2-21.5,8.4-24.5c0.1-1.3,0.5-2.2,0.6-3.2
				c0.1-1.4-2-4.4-1.5-5.5c0.7-1.6,4.5-1.1,6-1.7c2-0.9,4.1-2.9,5.8-4.4c3.6-3.2,8.1-5.7,11.4-9.2c3.7-3.6,6.8-8.3,9.9-12.6
				c11.7-15.9,27.3-32.6,47.5-36.4C1906.5,829.9,1908.9,830.2,1910.7,831.1L1910.7,831.1z"/>
		</g>
		<path class="st9" d="M1957.1,1409.8c0,0-10.2,20-33.8,41.8c-8.7,8.1-17,15-23.5,20.3c-7.9,6.3-13,10-13,10s-79.3-52-124.8-98.3
			c-3.3-3.4-6.6-6.8-9.6-10.1c-42.8-48.4-30.9-101.4-30.9-101.4l45.1-36.3c0,0,83.6-26.5,90.7,18.3
			C1864.3,1298.6,1957.1,1409.8,1957.1,1409.8L1957.1,1409.8z"/>
		<g>
			<path class="st21" d="M1899.8,1471.8c-7.9,6.3-12.4,10.4-12.4,10.4s-78.5-51.4-124.1-97.7l64.5-69.8c0,0,0,58.8,16,87.3
				C1855.4,1422.9,1899.8,1471.8,1899.8,1471.8z"/>
		</g>
		<path class="st9" d="M1745,1472c0,0-73.8-36.1-92.1-61.7c-1.4-2.1,91.2-185.2,93.4-186.4s67.2-13.6,68.1-13.8
			c2.2-0.4,15.5,20.2,16.9,22.1c10.2,13.4,20.4,26.7,30.7,40.1c4.4,5.9,8.9,11.9,13.5,17.7c-6.8,8.1-9.3,16.8-13,26.5
			c-2.8,7.5-5.6,15.2-8.3,22.9c-1.7,5-3.2,11-7.1,14.7c-7.8,7.3-18.5,11.8-26.9,18.3c-10.9,8.3-18,19.9-25.9,30.9
			c-8.1,11.3-16.3,22.7-24.4,34C1761.6,1448.8,1753.3,1460.3,1745,1472L1745,1472z"/>
		<g>
			<path class="st12" d="M1887.7,1185.4c-0.6-3.7-32.3-17.9-42.1-14.2c-9.9,3.7-16.1,10.9-23.3,7.5c-5.2-2.4-62.1-43.3-97.3-65.7
				c11.4-10.6,23.7-23.2,35.7-36.7c-18.2-13.7-32.6-29.5-48.2-46.5c-7.6,10-15.2,20.6-22.1,30.8c-16.5,24.2-28.7,49.9-28.5,66
				c-0.1,1.4,0.1,2.8,0.4,4.2c0,0,0,0,0,0c0,0.2,0.1,0.4,0.1,0.5c0.4,2.1,1.2,3.9,2.2,5.5c1.9,3.4,4.9,6.9,9.3,10.7
				c23.2,20,83.4,37.6,113.1,47.9c29.7,10.3,39.3,14.7,50.8,23.8c11.4,9,28,10.5,34.3-3.1c6.3-13.6,2.1-17.4,7-20.9
				C1883.9,1191.7,1888.4,1189,1887.7,1185.4z"/>
		</g>
		<path class="st10" d="M1790.7,945.1c0,0-46.8,23.2-102.5,108.9c0,0,10,14.7,29.1,30.5c18.5,15.3,29.3,18.2,29.3,18.2l32.7-34.5
			L1790.7,945.1z"/>
		<path class="st17" d="M1721.4,1271.9c-4.2,1,43-134.4,36-171.1c-7.1-36.8-23.2-102.9,5.4-133.6c28.6-30.8,55.2-33.4,78.2-26.2
			c23.1,7.3,53.2,40.9,56.9,100.2c3.6,59.3-22.4,248.9-22.4,248.9S1747.4,1265.5,1721.4,1271.9L1721.4,1271.9z"/>
		<g>
			<path class="st12" d="M2073.5,1023.3c-11.6-11.3-17.1-8.3-18.9-14.5c-1.9-6.2-3-11.8-7.1-12.4c-4-0.6-29.8,26.2-29.5,37.3
				c0.2,11.2,5.3,20.1-0.6,26.1c-4.2,4.3-64.4,45.5-100.1,72.9c-5.1-14.7-11.5-30.8-18.7-46.8c-19.6,13.8-42.5,16.3-65,20.7
				c7.2,13.7,15.3,28.3,23.3,41.7c15.1,25,33.4,46.9,48.1,53.6c1.8,1,3.9,1.6,6.2,1.9c0.2,0,0.3,0,0.5,0c0.4,0,0.7,0.1,1.1,0.1
				c0.3,0,0.7,0,1,0c5.1,0,11.2-1.7,18.6-5.9c28.7-16.2,68.3-70.5,89.5-96.7c21.2-26.2,29.2-34.3,42.5-42.6
				C2077.7,1050.6,2085.1,1034.6,2073.5,1023.3z"/>
		</g>
		<path class="st11" d="M1915.4,1093.9c0,0-19.4,11.4-43.6,23.1c-24.3,11.9-45.5,13.5-45.5,13.5c-0.1-0.1-1.6-3.4-3.9-9
			c-9.6-23.1-34-84.4-38-103.9c-4.2-21,17-50.1,29.8-55.3c31.9-13.1,52.3,11,61.3,22.1c3.3,4.2,9.7,20.3,16.3,38.9
			C1903.1,1055,1915.4,1093.9,1915.4,1093.9z"/>
		<g>
			<path class="st20" d="M1519.6,1572.7c-43.6,11.6-93.9,22-99.2,8.6c-5-12.4,34.7-35.5,79-56.4L1519.6,1572.7z"/>
		</g>
		<g>
			<path class="st20" d="M1936.6,1649.9c-10.4,28.6-23.5,60.8-35.3,78.2l-24.7-3.1c-2.3-19.5,2.2-54.3,8.5-89.3L1936.6,1649.9z"/>
		</g>
		<path class="st17" d="M1880.3,1252.3c-2.1,16.4,0,52.5,0,52.5s-6.3,15.6-30.6,6.4c-116-44.5-136.2-5.7-147.7-11.7
			c-4.3-2.2,10.9-12.3,17.8-36.7c7-24.3,36.3-91.7,36.3-91.7L1880.3,1252.3z"/>
		<g>
			<path class="st20" d="M1921.4,794.9c-0.2-0.6-0.4-1.2-0.9-1.6c-2.1-2-11.2,0.4-13.9,0.7c-4.9,0.6-9.8,1.2-14.8,1.6
				c-0.7,0.1-1.4,0.1-2.1,0.2c13-4,16.8-9.1,17-9.4c0.6-0.8,0.4-1.8-0.4-2.4c-0.8-0.6-1.8-0.4-2.4,0.4c-0.1,0.1-6.2,8.2-31.2,11.4
				c-6,0.8-10.8,1.6-14.7,2.4c-12,1.1-25.5,3.8-32.1,14.7c-1,1.7-1.7,4.3-2.8,5.9c-2.3-1.8-5.8-2.3-15.5-1.8c-0.9,0-1.7,0.9-1.6,1.8
				c0,1,0.9,1.7,1.8,1.6c7.1-0.3,10.3-0.2,12.2,0.6c-0.8,0.3-1.8,0.5-2.8,1c-6.3,2.8-10,8.9-12.3,15.2c-4.5,12.1-2.2,25.4,3.2,36.9
				c2.5,5.5,5.6,10.8,8.4,16.2c1.3,2.4,2.4,4.8,3.2,7.5c0.7,2.7,1.1,5.4,2.1,8c0.2,0.4,0.4,0.8,0.7,1c0.3,0.2,0.7,0.3,1.1,0.3
				c9.2,0.6,42.1-0.2,32.2-9.7c-13.6-13-3.5-21.3,4.3-22.5c7.7-1.3,10.7,19.6,19.4,16.6c8.6-3.1-2.7-26.4,7.2-30.6
				c10.3-4.4,1.1-15,8.8-22c3.4-3.1,12-2.1,15.9-4.3c0.5-0.3,0.9-0.6,1.4-1C1924.4,825.8,1925.7,806.7,1921.4,794.9z"/>
		</g>
		<g>
			<circle class="st20" cx="1914.1" cy="864" r="4.1"/>
		</g>
		<g>
			<path class="st20" d="M1925.2,852.5C1925.1,852.5,1925.1,852.6,1925.2,852.5c-0.2,0.1-0.3,0.1-0.5,0.1c-5.9-0.2-12-1.3-17.7,0.8
				c-1.8,0.6-3.4,1.6-5,2.6c-1.5,0.9-3.1,2.3-4.8,2.8c0-0.5,0.6-1.5,0.9-1.9c0.5-0.7,1-1.3,1.6-1.9c1.6-1.6,3.1-3.5,5-4.8
				c4.5-3.2,10.8-4,16.1-3c1.5,0.3,3,0.7,3.9,1.9c0.7,0.9,0.9,2.2,0.6,3.2C1925.3,852.3,1925.2,852.4,1925.2,852.5z"/>
		</g>
		<g>
			<path class="st7" d="M1691.7,1058.6c-0.4,0.7-0.9,1.3-1.3,2c-0.3,0.4-0.6,0.8-0.8,1.2c-1.6-2.4-1.3-7.8-1.3-7.8l0,0l0,0
				C1688.5,1054.4,1689.6,1056,1691.7,1058.6z"/>
		</g>
		<g>
			<path class="st7" d="M1746.6,1102.7c-3.3,0.6-8.5-0.5-10-0.8c0.8-0.8,1.6-1.6,2.4-2.5C1743.8,1101.9,1746.5,1102.6,1746.6,1102.7
				C1746.6,1102.7,1746.6,1102.7,1746.6,1102.7z"/>
		</g>
		<g>
			<path class="st7" d="M1915.4,1093.9c0,0,2.2,4.9-7.4,14.5l-3.4-8.3L1915.4,1093.9z"/>
		</g>
		<g class="st4">
			<path class="st6" d="M1915.4,1093.9c0,0-19.4,11.4-43.6,23.1c-24.3,11.9-45.5,13.4-45.5,13.4c-0.1-0.1-1.6-3.4-3.9-9
				c-0.3-0.7-0.6-1.5-0.9-2.3v0c19.6-10.4,73.2-42,70.4-91.4c0-0.6,0.2-1.5,0.5-2.5C1903.6,1056.5,1915.4,1093.9,1915.4,1093.9z"/>
		</g>
		<g>
			<g>
				<path class="st20" d="M1461.2,1673.4c-0.3,1.2-0.7,2.3-1.2,3.3c-4.8,9.2-22.9-1.4-28-6c-7.5-6.8-10.5-23.3-12.6-33.1
					c-3.3-16-6.6-32-10.1-48c-2.3-10.8-8.1-19.8-11.1-30.1c-1-3.6,2.5-9,5.3-11.1c1.2-0.9,4.3-1.2,7.5-1.3c-0.1,0.2-0.2,0.3-0.3,0.5
					c-1.6,2.9,21.2,25.1,23.9,73.5c2.7,48.3,20.6,51.9,20.8,53.9c0,0.3,0,0.5-0.1,0.7c0.4-0.2,1-0.4,1.7-0.6
					C1459.2,1674.4,1460.4,1673.9,1461.2,1673.4z"/>
			</g>
			<g>
				<path class="st9" d="M1490.1,1594.3c-1.2,4.4-7.7,5.3-9.3,10.1c-0.3,0.9-0.9,4.3-1.7,9.1c-0.4,2.3-0.8,4.9-1.3,7.7
					c-0.3,1.8-0.7,3.7-1,5.7c-0.4,2.4-0.9,5-1.4,7.6c-0.3,1.6-0.7,3.2-1,4.8c-0.5,2.5-1.1,4.9-1.7,7.3c-2.8,11.6-6.2,21.8-10.1,25.3
					c0,0.1-0.2,1.4-5.5,3.1c-0.7,0.2-1.2,0.4-1.7,0.6c0.1-0.2,0.1-0.4,0.1-0.7c-0.2-2-18.2-5.6-20.9-53.9
					c-2.7-48.4-25.5-70.6-23.9-73.5c1.6-2.9,3-6.5,15.9-8.7c12.9-2.2,41-1,41-1c-3.1,6.1-9.8,19.7-5.8,26.5c1,1.7,2.7,2.8,4.3,3.8
					c8.6,5.5,21.4,10.8,23.8,22.8C1490.4,1592.3,1490.4,1593.4,1490.1,1594.3z"/>
			</g>
		</g>
		<g>
			<path class="st20" d="M1479.2,1613.5L1479.2,1613.5c-0.4,2.3-0.8,4.9-1.3,7.7l-15.4-14.9c-1.3-1.2-1.4-3.3-0.3-4.7
				c0.6-0.8,1.5-1.1,2.4-1.1c0.7,0,1.4,0.3,1.9,0.8L1479.2,1613.5z"/>
		</g>
		<g>
			<path class="st20" d="M1476.9,1626.9c-0.4,2.4-0.9,5-1.4,7.6l-16.4-15.8c-1.3-1.2-1.4-3.3-0.2-4.7c0.6-0.8,1.5-1.1,2.4-1.1
				c0.7,0,1.4,0.3,1.9,0.8L1476.9,1626.9z"/>
		</g>
		<g>
			<path class="st20" d="M1474.5,1639.3c-0.5,2.5-1.1,4.9-1.7,7.3l-15.5-15c-1.3-1.2-1.4-3.3-0.2-4.7c0.6-0.8,1.5-1.1,2.4-1.1
				c0.7,0,1.4,0.3,2,0.8L1474.5,1639.3z"/>
		</g>
		<g>
			<g>
				<path class="st20" d="M1984.7,1763.2c-0.1,4-2.3,7.2-7.3,11.7c-8.8,7.8-27.9,3.2-38,1c-13.3-2.8-26.4-7-39.9-8.7
					c-11.4-1.4-42.1,4.5-47.6-9.9c-2.8-7.4,0.5-14.8,3.1-19.1c0.5,4.2,1.6,5.1,3.9,6.2c3.4,1.7,24.6,0.3,37.9,3.8
					c13.2,3.6,44,14,56,19.1c7.8,3.3,21.3,4.9,28.7-0.4C1983,1765.8,1984.1,1764.5,1984.7,1763.2z"/>
			</g>
			<g>
				<path class="st9" d="M1952.7,1767.4c-12-5.1-42.7-15.5-56-19.1c-13.3-3.6-34.5-2.2-37.9-3.8c-2.6-1.3-3.7-2.3-4-8.2
					c0-0.7-0.1-1.6-0.1-2.4c0-1.3,0-2.8,0-4.4c0.1-12.1,16.5-35.8,16.5-35.8s12,12.6,16.7,12.7c4.7,0.2,11.5,0.4,21.5-8.6
					s21.2-1.7,24.6-0.7c3.4,1.1,4.8,13.5,5.7,15.4c1.7,3.7,4.8,7.5,8.5,11c2.1,2,4.5,4,6.9,6c1.1,0.9,2.2,1.8,3.3,2.6
					c2.6,2,5.2,3.9,7.7,5.7c1,0.7,1.9,1.4,2.8,2.1c2.8,2,5.3,3.9,7.2,5.6c0.1,0.1,0.1,0.1,0.2,0.2c5.8,5,13.8,15,5,21.3
					C1974,1772.3,1960.5,1770.7,1952.7,1767.4z"/>
			</g>
			<g>
				<path class="st20" d="M1955.1,1729.5l-21.3,5.5c-2,0.5-4-0.7-4.6-2.7c-0.1-0.4-0.1-0.7-0.1-1c0.1-1.6,1.2-3.1,2.8-3.5l16.3-4.2
					C1950.4,1725.5,1952.7,1727.5,1955.1,1729.5z"/>
			</g>
			<g>
				<path class="st20" d="M1966.2,1737.8l-20.6,5.3c-2,0.5-4-0.7-4.6-2.7c-0.1-0.4-0.1-0.7-0.1-1.1c0.1-1.6,1.2-3.1,2.8-3.5
					l14.8-3.8C1961.1,1734.1,1963.7,1736,1966.2,1737.8z"/>
			</g>
			<g>
				<path class="st20" d="M1976.4,1745.7l-19.9,5.1c-2,0.5-4-0.7-4.6-2.7c-0.1-0.4-0.1-0.7-0.1-1c0.1-1.6,1.2-3.1,2.8-3.5l14.4-3.7
					c2.8,2,5.3,3.9,7.2,5.6C1976.3,1745.6,1976.3,1745.6,1976.4,1745.7z"/>
			</g>
		</g>
		<g>
			<path class="st7" d="M1826.3,1130.5c0,0,14.2-2.3,18.3-3.4l3,5.6C1847.6,1132.7,1838.7,1134.9,1826.3,1130.5z"/>
		</g>
	</g>
</g>
</svg>
