<?xml version="1.0" encoding="utf-8"?>
<!-- Generator: Adobe Illustrator 16.0.0, SVG Export Plug-In . SVG Version: 6.00 Build 0)  -->
<!DOCTYPE svg PUBLIC "-//W3C//DTD SVG 1.1//EN" "http://www.w3.org/Graphics/SVG/1.1/DTD/svg11.dtd">
<svg version="1.1" id="Layer_1" xmlns="http://www.w3.org/2000/svg" xmlns:xlink="http://www.w3.org/1999/xlink" x="0px" y="0px"
	 width="2909.1px" height="2000px" viewBox="0 0 2909.1 2000" style="enable-background:new 0 0 2909.1 2000;" xml:space="preserve"
	>
<style type="text/css">
<![CDATA[
	.st0{display:none;fill:#FFFFFF;}
	.st1{fill:#163342;}
	.st2{fill:#4D4D4F;}
	.st3{fill:#E8734D;}
	.st4{fill:#EB4747;}
	.st5{fill:#B85B3D;}
	.st6{fill:#EDDAD3;}
	.st7{fill:#EEA886;}
	.st8{fill:#5279AD;}
	.st9{fill:#2F4563;}
	.st10{fill:#325C80;}
	.st11{fill:#3F74A0;}
	.st12{fill:#754836;}
	.st13{fill:#A77860;}
	.st14{fill:#DBDFF0;}
]]>
</style>
<rect x="0" class="st0" width="2909.1" height="2000"/>
<g>
	<g>
		<polygon class="st14" points="1786.3,1253.8 1786.3,1273.9 1786.3,1457.8 1802.7,1457.8 1802.7,1273.9 2317,1273.9 2317,1457.8 
			2333.4,1457.8 2333.4,1273.9 2333.4,1253.8 		"/>
		<path class="st7" d="M1960.7,1127c0,0-34.6-0.8-46.8-2.9c-12.2-2.1-78.7-6.3-110.1,0c-31.5,6.3-99.3,23.1-111.5,25.5
			c-12.2,2.4-36.7-1.4-44.7,24.1s-5.9,34.3-6.3,53.8c-0.3,19.6,0,165-3.1,178.6c0,0,21.3,9.1,37.4,0c0,0,0.7-48.6,12.6-79
			c11.9-30.4,11.5-72,9.4-91.6s51.7-9.8,104.9-17.8c53.1-8,74.8,18.5,115,15c40.2-3.5,62.6-23.1,62.6-23.1L1960.7,1127z"/>
		<path class="st9" d="M1980,1209.7c0,0-22.4,19.6-62.6,23.1c-40.2,3.5-61.5-12.1-114.7-4c-32.3,4.9-62.9,9.3-82.5,16.6
			c-1.7-30.2-23.5-95.8-23.9-96.7c19-4.2,78.5-18.9,107.4-24.6c31.5-6.3,97.9-2.1,110.1,0c12.2,2.1,46.8,2.9,46.8,2.9L1980,1209.7z"
			/>
		<path class="st14" d="M1638.3,1404.8c0,0-13.9,10.2-27.9,15.9c-14,5.8-55.1,8-58.9,23.1c-3.8,15,19.9,14,29,14
			c9.1,0,75-3.1,84.8-2.1c9.8,1,22.4-12.4,10.1-49.5c0,0-12.9,1-19.1-1.4C1650.3,1402.4,1643,1401.6,1638.3,1404.8z"/>
		<g>
			<path class="st7" d="M2317.1,1142.2c0,0-19.9-11.5-23.2-6.2c-2.7,4.4-22.3-5.9-25.5-7.2c-3.2-1.4-5.8,7.9-8,9.9
				c-2.1,1.9-28,7.1-29,14.8c-1,7.7,10.1,42.8,19.7,52.6c9.6,9.8,53.8,18.8,72.8,13C2342.7,1213.3,2351.9,1162.5,2317.1,1142.2z"/>
		</g>
		<g>
			<path class="st7" d="M2289.7,1217.8c-33.6-6.5-64.8-4.9-64.8-4.9s-23.3-48.6-14.5-45.3c4.7,1.7,8.3,1,17.3,1.5c0.2,0,0.4,0,0.6,0
				c2.1,0.1,4,0.2,5.8,0.2h0c0.9,0,1.7,0.1,2.5,0.1c3.3,0.1,5.5,0.1,5.5,0.1S2323.3,1224.2,2289.7,1217.8z"/>
		</g>
		<g>
			<path class="st12" d="M2313,1139.8c0,0,21.9-10.4,37.6,10.3c15.6,20.7-13.9,57.2-15.1,61.4c-1.2,4.2-26.6,56.6-46.2,17.7
				c-126.4-250.4-33.5-15.8-33.5-15.8s19.9-3.9,21.9-11.4c2.2-8.2,4.4-21.7,4.4-21.7s18.8,7.7,21.8-3.4
				C2306.7,1165.8,2316.9,1151.2,2313,1139.8z"/>
		</g>
		<g>
			<path class="st7" d="M2292.5,1192.5c2.6,1.1,11,3,4.2,12.4c-6.8,9.4-24.8-5.2-25.1-6.9
				C2271.4,1196.3,2270.8,1183.6,2292.5,1192.5z"/>
		</g>
		<path class="st3" d="M2229.9,1212.7c0,0-8.7-0.2-24.3,6.4c-15.6,6.7-39.8,13.8-88,13.8c-48.2,0-56.4-13.8-90.6-17
			c-34.3-3.1-47,3.1-47,3.1l-19.7-94.7c0,0,5.8,0,40.7-2.3c35-2.3,43.3-5.8,60-8c16.6-2.3,32.5,3.5,46.7,3.1
			c7.1-0.2,11.5-1.5,17.4-1.8c2.8-0.2,6-0.1,9.9,0.5c4.2,0.6,9.2,1.7,15.7,3.6c25.3,7.5,41.1,33.6,49.6,39.2
			c8.6,5.6,18.4,4.3,18.4,4.3L2229.9,1212.7z"/>
		<path class="st7" d="M2193.9,1203.6c0,0,19.4-13.6,11.5-44.6c-7.9-30.9-18.1-57.9-18.4-72.9c-0.3-14.9,3.9-80,0-98.3
			c-3.9-18.4-10.5-93.3-11.3-103.3l-22.5-1.8c0,0-13.9,88.6-13.4,104.9c0.5,16.3,2.4,48.8,1,73.2c-1.3,24.4-8.9,99.1-7.3,116.4
			C2135.2,1194.4,2147.8,1229.6,2193.9,1203.6z"/>
		<path class="st3" d="M2193.9,1203.6c-46.1,26-58.7-9.2-60.3-26.5c-1.1-11.7,0.1-49.7,2.6-80.7h57.5c3,15.6,5.4,37.8,11.7,62.6
			C2213.3,1190,2193.9,1203.6,2193.9,1203.6z"/>
		<circle class="st2" cx="2162.5" cy="846" r="74.5"/>
		<circle class="st3" cx="2162.5" cy="846" r="38.8"/>
		<rect x="1779.1" y="1233" class="st8" width="597.5" height="29.7"/>
		<polygon class="st8" points="2400.7,994.9 2389.5,994.9 2389.5,1016.1 2363.7,1016.1 2363.7,994.9 2352.5,994.9 2352.5,1031.1 
			2366.6,1031.1 2366.6,1457.8 2386.6,1457.8 2386.6,1031.1 2400.7,1031.1 		"/>
		<path class="st13" d="M2240.8,1188.4c-0.4-0.6-7.2-9.8-12.5-19.4c2.1,0.1,4,0.2,5.8,0.2h0
			C2234.1,1169.3,2239.3,1184.9,2240.8,1188.4z"/>
		<path class="st5" d="M2133.5,1174.8c0,0-7.5-24.8-8.5-59.3c2.8-0.2,6-0.1,9.9,0.5C2134.9,1115.9,2130.7,1154.6,2133.5,1174.8z"/>
	</g>
	<g>
		<path class="st10" d="M1366.3,800.1h-14.5c0.3,0.6,0.6,1.1,0.9,1.6c-31.9,7.8-56,42.7-56,84.6c0,41.8,24,76.7,55.9,84.6
			c-0.5,1-0.8,1.7-0.8,1.7h14.5c38.5,0,69.6-38.6,69.6-86.3C1435.9,838.7,1404.8,800.1,1366.3,800.1z"/>
		<ellipse class="st11" cx="1351.8" cy="886.4" rx="69.6" ry="86.3"/>
		<path class="st10" d="M1344.9,780H1327c0.4,0.7,0.8,1.4,1.2,2c-39.4,9.7-69.1,52.7-69.1,104.3c0,51.6,29.6,94.5,68.9,104.3
			c-0.6,1.2-1,2.1-1,2.1h17.9c47.4,0,85.9-47.6,85.9-106.3C1430.7,827.6,1392.3,780,1344.9,780z"/>
		<ellipse class="st11" cx="1327" cy="886.4" rx="85.9" ry="106.3"/>
		<path class="st7" d="M1198,938.5c0,0,1.2-9.9-0.5-13c-1.7-3.1-10.3-22-11.9-25.5c-1.1-2.3,1.6-23.7,9.2-23.3
			c7.6,0.4,36.6,11.7,36.6,11.7s4,20.7,1.4,25.9c-2.6,5.2-10.2,29.6-10,27.4C1223,939.6,1198,938.5,1198,938.5z"/>
		<path class="st7" d="M1186.6,902.3c0,0-6.9-14.3-5.6-26.1c0.6-5.8-1.4-6.8,1.1-6.9c2.5-0.1,8.7-1.4,12,15.7
			c3.3,17.1,11.3,18.6,11.3,18.6L1186.6,902.3z"/>
		<path class="st7" d="M923.4,877.8c0,0-1.2-11.5,3.1-10.3c4.3,1.2,6.1,9.1,9.8,10.3c3.6,1.3,6.9,12.8,5.9,17.9
			c-1,5.1-8,35.4-7.5,39.7c0.5,4.3-28.6,0-28.6,0s-0.5-22.6-6.2-25.4s-7-9.3-8.4-13.8l37.4-0.8L923.4,877.8z"/>
		<rect x="900.8" y="878" class="st11" width="405.7" height="13.8"/>
		<path class="st7" d="M1197,891.9c1,1.9,2.9,3.1,5,3.3c3.4,0.3,9.2,0.6,16.1,0.4c11.3-0.3,18-1.5,16.1-10.3
			c-1.9-8.8-6-7.2-10.1-9.4c-4-2.2-30.9-3.3-32,1.7C1191.3,880.9,1194.8,887.9,1197,891.9z"/>
		<path class="st7" d="M925.8,876.8c0,0,2.7,1.5,5.8,8.5c3.2,7.1,4.5,11.3,0.9,13.3c-3.6,2-24.4,1.9-31.8,1s-7.8-11.1-8.1-13.8
			c-0.5-4.9,2.6-7.9,7.8-9.1C905.7,875.6,923.6,875.7,925.8,876.8z"/>
		<path class="st7" d="M1131.5,959.6c-21.9-13.4-54.2-20.5-54.2-20.5s39.3,59.6,44.8,66.2c5.5,6.6,23.1,23.7,31.7,28.3
			s38.5,18.9,54.3,21.1c29.7,4,17.8-121.1,17.8-121.1l-27.4-1.5c-2.3,24.8-5.9,42-9.4,55.3c-2.4,9.3-13.1,2.3-19.5-2.1
			C1169.5,985.2,1145.6,968.2,1131.5,959.6z"/>
		<path class="st7" d="M1091,1155.3c0,0,8.4,6,19,9.5c10.6,3.5,40,20.8,49.1,26.3c9.1,5.4,54,21.7,59.2,37.1c5.2,15.4-1.1,36,0,43.3
			c1.1,7.4,2.4,36-1.1,52.9c-3.5,16.9-23,109.2-23,109.2s-11.7,2.8-34.9-1.3c0,0,6.9-54,2.6-76.9c-4.3-23,0.7-59.2,3.2-72.6
			c2.6-13.4,4.9-22.5-7.9-23c-12.9-0.4-61.4-4.8-89.8-22.5c-28.4-17.8-29-16.9-41.2-16.9c-12.1,0-42.3-95.3-42.3-95.3
			S1059.8,1128.4,1091,1155.3z"/>
		<path class="st4" d="M1165.4,1194.1L1165.4,1194.1c0,0-21.6-9.7-38.1,24.8c-8.3,17.4-1.6,37.3-1.6,37.3
			c-19-3.2-41.9-8.9-58.2-19.1c-28.4-17.8-29-16.9-41.2-16.9c-12.1,0-44.6-96.3-44.6-96.3s78.1,2.1,109.3,29
			C1105.9,1157.4,1126.7,1166.4,1165.4,1194.1z"/>
		<path class="st7" d="M1081.3,842.8c0,0,42.6-17.2,40,38.5c-2.6,55.7-13.5,61.6-41.1,53.8c-27.6-7.8-29.5-41.5-33.1-58.4
			C1043.5,859.8,1067.5,845.2,1081.3,842.8z"/>
		<path class="st1" d="M1052.9,904.4c0,0-0.1-14.9,6.1-16.3c6.2-1.4,9.4,7.2,9.4,7.2l5-0.3c0,0-4.5-15.1,1.4-18.5
			c5.9-3.5,41.2-0.4,45.6-5.5c4.4-5.1-2-35.2-11.6-38.2c-9.6-3-35.9-9-52.7,5.9c0,0-14.5,0.3-15.1,12.1
			C1040.4,862.7,1047.8,896.3,1052.9,904.4z"/>
		<path class="st7" d="M1066,881.8c-1.9-4.9-12.3-4.3-11.2,3.5c1.1,7.8,9.7,19.8,13.2,17.5C1071.4,900.6,1068.5,888.6,1066,881.8z"
			/>
		<path class="st4" d="M1118,958.4c0,0,11.3-1.9,15.4,41.3c1.2,13-1.1,59-2.5,66.2c-4.1,20.8-23.6,49.1-28.9,60.3
			c-5.4,11.2-18.6,42.5-17.8,62.2c0,0-86.1-27.2-105.9-52.4c0,0,10.2-34.5,13.3-43.4c3.1-8.9,4.4-39,0.6-54.7
			c-3.9-15.6-2.3-48-1.6-67.3c0.3-7.1,7.7-18.1,18.2-23c17.9-8.4,42.7-12.4,42.7-12.4L1118,958.4z"/>
		<path class="st7" d="M1096.8,952c0,0-20.1,2.6-45.4-16.8c0,0,3.9-25,2.5-37.8c-1.5-12.8,44.1,36.7,44.1,36.7s-0.2,1.9-0.5,4.6
			c-0.2,1.8-0.4,4-0.5,6.1C1096.7,947.5,1096.7,950.2,1096.8,952z"/>
		<path class="st6" d="M1159.5,1430.9c0,0,8.2,0.9,14.9,0c6.6-0.9,12-8.4,22.7-3.8c10.7,4.6,17.8,18.3,26.1,20.2
			c8.4,1.9,29.3,10.7,27.4,22.1c-1.9,11.4-25,16-46.5,7.8c-21.5-8.2-35.7-10.7-47.7-11.8c-12-1.2-4.3-18.6-1.7-24.6
			C1157.3,1435,1159.5,1430.9,1159.5,1430.9z"/>
		<path class="st7" d="M1016.4,1151.3c0,0-11,19.3-0.4,22.7c10.6,3.5,15.2,15,24.3,20.4c9.1,5.4,41.1,28.6,46.3,44
			c5.2,15.4-1.1,36,0,43.3c1.1,7.4,2.4,36-1.1,52.9c-3.5,16.9-23,109.2-23,109.2s-11.7,2.8-34.9-1.3c0,0,6.9-54,2.6-76.9
			s0.7-59.2,3.2-72.6c2.6-13.4,2.9-22.6-9.9-23c-12.9-0.4-40.7-5.6-64.1-26.7c-12.3-11.1,4.1-60,7.3-71.2
			c3.4-11.6,18.1-55.1,18.1-55.1S985.2,1124.5,1016.4,1151.3z"/>
		<path class="st13" d="M1097,944.5c-18.3-2.5-29.2-18.7-29.5-19.2c14.1,13.1,30.1,12.6,30.1,12.6
			C1097.3,939.7,1097.1,942.4,1097,944.5z"/>
		<path class="st6" d="M1039.2,1433.8c0,0,10.1-4.6,16.8-4.3c6.7,0.2,7.3,4.6,9,7.1c1.7,2.5,16.2,26.2,20.6,30.6s19.7,8.9,17.5,19.7
			c-2.2,10.8-21.6,15.1-45.6,12c-24-3.1-24.9-23.7-28.7-28.8c-3.8-5-2.3-38.6,1.5-40.9C1034,1426.9,1039.2,1433.8,1039.2,1433.8z"/>
		<path class="st4" d="M1064.9,1212.7c0,0-52.6-19.4-54,55.9c0,0-58.5-8.8-58.6-39.4c-0.1-30.6,5.6-47.8,33.5-118.3
			C1013.7,1040.3,1064.9,1212.7,1064.9,1212.7z"/>
		<path class="st7" d="M996.4,956.1c0,0-8.3,8.7-11.8,12.7c-3.6,4-14.4,12.5-20.4,17.5c-6,5-19.7,18.6-22.1,9.4
			c-3.5-13.3-7.5-44.1-7.5-70l-27.9,2.2c0,0-14.6,146.7,15.1,142.6c15.8-2.1,44.3-13.4,52.6-18.5c15.6-9.6,32.2-27.1,37.7-33.7
			c5.5-6.6,24.9-50,24.9-50S1021.8,929.5,996.4,956.1z"/>
		<path class="st7" d="M990.1,1023.3c0,0,1.1,21.4,2.9,28.3c1.7,6.9,6.7,26.7,27.3,21.7c12.4-3,36.7-38.6,16.8-105
			c0,0-37.7,26.1-46.1,50.4C990.9,1018.7,990,1022.1,990.1,1023.3z"/>
		<path class="st4" d="M1097,944.5c0,0,22.5,4.1,28,19.6s-28.1-12.1-28.1-12.1L1097,944.5z"/>
		<path class="st10" d="M819.9,780H802c0.4,0.7,0.8,1.4,1.2,2c-39.4,9.7-69.1,52.7-69.1,104.3c0,51.6,29.6,94.5,68.9,104.3
			c-0.6,1.2-1,2.1-1,2.1h17.9c47.4,0,85.9-47.6,85.9-106.3C905.8,827.6,867.4,780,819.9,780z"/>
		<ellipse class="st11" cx="802" cy="886.4" rx="85.9" ry="106.3"/>
		<path class="st10" d="M819.9,780H802c0.4,0.7,0.8,1.4,1.2,2c-39.4,9.7-69.1,52.7-69.1,104.3c0,51.6,29.6,94.5,68.9,104.3
			c-0.6,1.2-1,2.1-1,2.1h17.9c47.4,0,85.9-47.6,85.9-106.3C905.8,827.6,867.4,780,819.9,780z"/>
		<ellipse class="st11" cx="802" cy="886.4" rx="85.9" ry="106.3"/>
		<path class="st10" d="M800.3,800.1h-14.5c0.3,0.6,0.6,1.1,0.9,1.6c-31.9,7.8-56,42.7-56,84.6c0,41.8,24,76.7,55.9,84.6
			c-0.5,1-0.8,1.7-0.8,1.7h14.5c38.5,0,69.6-38.6,69.6-86.3C870,838.7,838.8,800.1,800.3,800.1z"/>
		<ellipse class="st11" cx="785.8" cy="886.4" rx="69.6" ry="86.3"/>
		<path class="st10" d="M800.3,800.1h-14.5c0.3,0.6,0.6,1.1,0.9,1.6c-31.9,7.8-56,42.7-56,84.6c0,41.8,24,76.7,55.9,84.6
			c-0.5,1-0.8,1.7-0.8,1.7h14.5c38.5,0,69.6-38.6,69.6-86.3C870,838.7,838.8,800.1,800.3,800.1z"/>
		<ellipse class="st11" cx="785.8" cy="886.4" rx="69.6" ry="86.3"/>
		<path class="st10" d="M779.4,812.3h-12.5c0.3,0.5,0.5,1,0.8,1.4c-27.4,6.7-48.1,36.7-48.1,72.6c0,35.9,20.6,65.8,48,72.6
			c-0.4,0.8-0.7,1.4-0.7,1.4h12.5c33,0,59.8-33.1,59.8-74C839.1,845.5,812.4,812.3,779.4,812.3z"/>
		<ellipse class="st11" cx="766.9" cy="886.4" rx="59.8" ry="74"/>
		<path class="st4" d="M1110,949.2c0,0,21.5,5.1,29,56.5s-21.9,84.6-21.9,84.6L1110,949.2z"/>
	</g>
	<g>
		<path class="st4" d="M1545.7,818.9c0,0-28.6-6-38.5-4.5C1497.3,815.9,1535.7,841.3,1545.7,818.9z"/>
		<path class="st7" d="M1545.7,818.9c0,0,14.4-11.4,19.3-19.3c4.9-8,33.8-95,39.2-107.5c5.3-12.5,13.1-54.4,20.2-69.6
			c7.4-15.7,61.1-129.1,64.9-165.4l48.5-8.2c0,0-28.2,178.8-32.4,197c-4.2,18.2-22.5,59.4-25.9,76.1c-3.4,16.7-22.7,76.9-31.1,89.4
			c-8.3,12.5-54.6,128.1-54.6,128.1S1516.2,859.5,1545.7,818.9z"/>
		<path class="st10" d="M2009.5,215.1h-25.4c0.6,1,1.1,2,1.6,2.9c-55.9,13.7-98,74.7-98,147.9c0,73.1,42,134,97.7,147.9
			c-0.9,1.7-1.4,2.9-1.4,2.9h25.4c67.2,0,121.7-67.5,121.7-150.8C2131.3,282.7,2076.8,215.1,2009.5,215.1z"/>
		<ellipse class="st11" cx="1984.1" cy="365.9" rx="121.7" ry="150.8"/>
		<path class="st10" d="M1972.1,180h-31.3c0.7,1.3,1.4,2.5,2,3.6c-68.9,16.9-120.8,92.1-120.8,182.4c0,90.1,51.8,165.3,120.5,182.3
			c-1.1,2.1-1.7,3.6-1.7,3.6h31.3c82.9,0,150.1-83.2,150.1-185.9S2055,180,1972.1,180z"/>
		<ellipse class="st11" cx="1940.8" cy="365.9" rx="150.1" ry="185.9"/>
		<path class="st7" d="M1565.4,1250.1c0,0,18.2,6.8,36.8,12.9c18.6,6.1,61,41.3,76.9,50.8c15.9,9.5,94.3,37.9,103.4,64.8
			c9.1,26.9-1.9,62.9,0,75.8c1.9,12.9,4.2,62.9-1.9,92.4c-6.1,29.6-40.2,191-40.2,191s-20.5,4.9-61-2.3c0,0,12.1-94.3,4.5-134.5
			c-7.6-40.2,1.1-103.4,5.7-126.9c4.5-23.5,8.6-39.4-13.9-40.2s-107.3-8.3-157-39.4c-49.6-31.1-50.8-29.6-72-29.6
			c-21.2,0-79.6-173.1-79.6-173.1S1510.9,1203.1,1565.4,1250.1z"/>
		<path class="st7" d="M1446.8,1364.9c0,0-23.5,3.8-28,11.4s-86.4,108-114.4,122c-28,14-54.6,52.7-76.3,61.8
			c-21,8.8-113.9,22-153.3,20.4c-39.4-1.5-112.9,9.5-112.9,9.5s-69.7,5.3-31.8-40.5c0,0,112.5-41.7,140.2-53.8
			c27.7-12.1,78-23.9,101.5-22.7c23.5,1.1,51.5-57.2,58.7-72.4c7.2-15.2,55.7-107.2,71.2-125.4c15.5-18.2,14.4-50.1,66.7-93.4
			C1419,1139.8,1473.7,1303.1,1446.8,1364.9z"/>
		<path class="st4" d="M1689.9,1319.2L1689.9,1319.2c0,0-37.8-16.9-66.5,43.4c-14.5,30.5-2.8,65.2-2.8,65.2
			c-33.2-5.5-73.3-15.6-101.7-33.4c-49.6-31.1-50.8-29.6-72-29.6c-21.2,0-79.6-173.1-79.6-173.1s143.6,11.4,198.2,58.3
			c0,0,18.2,6.8,36.8,12.9C1618.3,1268.3,1670.8,1306,1689.9,1319.2z"/>
		<path class="st4" d="M1446.8,1364.9c0,0-23.5,3.8-28,11.4c-2.7,4.4-31.4,40.2-60.6,72.2c0,0,0,0,0,0s-59.7,8.3-122-59.2
			c0,0,0,0,0,0c15.2-29.5,52.3-98.6,65.6-114.1c15.5-18.2,14.4-50.1,66.7-93.4C1419,1139.8,1473.7,1303.1,1446.8,1364.9z"/>
		<path class="st7" d="M1479.3,650.3c0,0,74.5-30.1,69.9,67.3c-4.6,97.4-23.6,107.7-71.9,94.1c-48.2-13.6-51.6-72.5-57.9-102.1
			C1413.2,680,1455.4,654.5,1479.3,650.3z"/>
		<path class="st1" d="M1429.7,757.9c0,0-0.2-26,10.6-28.4c10.8-2.4,16.4,12.6,16.4,12.6l8.7-0.5c0,0-7.8-26.4,2.5-32.4
			c10.3-6,72-0.7,79.8-9.6c7.7-8.9-3.5-61.6-20.3-66.8c-16.8-5.2-62.8-15.7-92.1,10.3c0,0-25.4,0.5-26.4,21.2
			C1407.9,685.1,1420.9,743.8,1429.7,757.9z"/>
		<path class="st7" d="M1452.6,718.5c-3.2-8.6-21.5-7.5-19.7,6.1c1.9,13.6,17,34.6,23.1,30.6C1462,751.3,1457,730.3,1452.6,718.5z"
			/>
		<path class="st4" d="M1545.7,818.9c0,0,41.2,69.4,47.6,91.3c6.4,22,15.9,101.9,15.7,114.8c-0.8,37.1-25.8,91.7-31.6,112.5
			c-5.9,20.8-19.1,78.8-11.9,112.5c0,0-156.5-20.8-198.2-58.3c0,0,7.2-62.5,9.8-78.8c2.7-16.3-4.2-68.6-15.5-94.3
			c-11.4-25.8-19.7-89-24.2-122.4c-4.5-33.3,101.9-81.8,101.9-81.8L1545.7,818.9z"/>
		<path class="st7" d="M1448.7,843.9c0,0-10.9-24.6-13.2-31.4c-2.3-6.8-7.7-72.8-16.6-111.6c-7.1-31.2,2.9-70.2-5.4-108.5
			c-8.3-38.3-26.9-156.5-29.2-182.6c0,0-20.5-3.4-48.1,0c0,0-9.1,138.7-7.2,164.1c1.9,25.4,14.8,86.8,12.5,110.6
			c-2.3,23.9-9.9,106.8-8.3,130c1.5,23.1-5,94.9,10.6,126.6C1359.3,972.8,1491.9,953.4,1448.7,843.9z"/>
		<path class="st7" d="M1516,839c0,0-33.9,10.5-83.2-15.2c0,0-0.8-44.3-7.2-65.9c-6.4-21.6,87,49.8,87,49.8s0.2,3.4,0.5,8.1
			c0.2,3.2,0.6,7,1,10.7C1514.5,831.3,1515.2,835.9,1516,839z"/>
		<path class="st7" d="M1689.3,457.1c0,0,2.1-17.2-0.9-22.7s-18-38.4-20.8-44.5c-1.9-4,2.8-41.5,16.1-40.7c13.3,0.8,64,20.5,64,20.5
			s7.1,36.2,2.5,45.3c-4.5,9.1-17.9,51.7-17.5,47.9C1733,459,1689.3,457.1,1689.3,457.1z"/>
		<path class="st7" d="M1669.4,393.8c0,0-12-25-9.8-45.7c1.1-10.1-2.4-11.9,1.9-12.1c4.3-0.3,15.2-2.4,21,27.5
			c5.8,29.9,19.7,32.5,19.7,32.5L1669.4,393.8z"/>
		<path class="st7" d="M1363.7,338.4c0,0-2.1-20.1,5.5-18.1c7.6,2,10.7,15.9,17.1,18.1c6.3,2.2,12.1,22.4,10.4,31.2
			c-1.8,8.8-12.9,38.6-12.1,46.1c0.8,7.5-48.1,0-48.1,0s-3.8-16.3-13.6-21.1c-9.9-4.8-12.3-16.2-14.8-24.1l65.4-1.5L1363.7,338.4z"
			/>
		<rect x="1195.6" y="351.2" class="st11" width="709.3" height="24.1"/>
		<path class="st3" d="M1679.7,1733.2c0,0,14.4,1.5,26,0c11.6-1.5,21-14.7,39.7-6.6c18.7,8.1,31.1,32.1,45.7,35.4
			c14.6,3.3,51.3,18.7,48,38.6c-3.3,20-43.7,28-81.3,13.6c-37.6-14.4-62.4-18.7-83.4-20.7c-21-2-7.6-32.6-3-42.9
			C1675.9,1740.2,1679.7,1733.2,1679.7,1733.2z"/>
		<path class="st3" d="M930,1549.4c0,0-3.2,18.8,3.2,21.2c6.4,2.5,34.5,15.3,36.4,20.5c1.9,5.1,26.5,59.9,34.9,62.3
			c8.3,2.5,47.7,6.1,44.7,25.4c-3,19.3-47.5,23.5-79.2,17.1c-31.6-6.4-65.7-54.6-72.9-58.7c-7.2-4.2-26.3-21.4-12.1-45.3
			C899.2,1568,930,1549.4,930,1549.4z"/>
		<path class="st7" d="M1687.5,375.6c1.8,3.3,5.1,5.4,8.8,5.7c6,0.5,16.2,1,28.1,0.8c19.8-0.5,31.5-2.6,28.2-18
			c-3.3-15.4-10.6-12.6-17.6-16.4c-7.1-3.8-54-5.7-56,2.9C1677.6,356.4,1683.6,368.7,1687.5,375.6z"/>
		<path class="st7" d="M1367.9,336.6c0,0,4.7,2.5,10.2,14.9c5.6,12.4,7.9,19.7,1.6,23.3c-6.3,3.5-42.7,3.3-55.6,1.8
			c-12.9-1.5-13.6-19.4-14.1-24.1c-0.8-8.5,4.5-13.8,13.6-15.9C1332.7,334.6,1364.1,334.8,1367.9,336.6z"/>
		<path class="st10" d="M1054.3,180H1023c0.7,1.3,1.4,2.5,2,3.6c-68.9,16.9-120.8,92.1-120.8,182.4c0,90.1,51.8,165.3,120.5,182.3
			c-1.1,2.1-1.7,3.6-1.7,3.6h31.3c82.9,0,150.1-83.2,150.1-185.9S1137.2,180,1054.3,180z"/>
		<path class="st11" d="M1173.1,365.9c0,102.7-67.2,185.9-150.1,185.9c-82.9,0-150.1-83.2-150.1-185.9S940.1,180,1023,180
			C1105.9,180,1173.1,263.3,1173.1,365.9z"/>
		<path class="st10" d="M1054.3,180H1023c0.7,1.3,1.4,2.5,2,3.6c-68.9,16.9-120.8,92.1-120.8,182.4c0,90.1,51.8,165.3,120.5,182.3
			c-1.1,2.1-1.7,3.6-1.7,3.6h31.3c82.9,0,150.1-83.2,150.1-185.9S1137.2,180,1054.3,180z"/>
		<path class="st11" d="M1173.1,365.9c0,102.7-67.2,185.9-150.1,185.9c-82.9,0-150.1-83.2-150.1-185.9S940.1,180,1023,180
			C1105.9,180,1173.1,263.3,1173.1,365.9z"/>
		<path class="st10" d="M1020,215.1h-25.4c0.6,1,1.1,2,1.6,2.9c-55.9,13.7-98,74.7-98,147.9c0,73.1,42,134,97.7,147.9
			c-0.9,1.7-1.4,2.9-1.4,2.9h25.4c67.2,0,121.7-67.5,121.7-150.8C1141.7,282.7,1087.2,215.1,1020,215.1z"/>
		<path class="st11" d="M1116.3,365.9c0,83.3-54.5,150.8-121.7,150.8c-67.2,0-121.7-67.5-121.7-150.8c0-83.3,54.5-150.8,121.7-150.8
			C1061.8,215.1,1116.3,282.7,1116.3,365.9z"/>
		<path class="st10" d="M1020,215.1h-25.4c0.6,1,1.1,2,1.6,2.9c-55.9,13.7-98,74.7-98,147.9c0,73.1,42,134,97.7,147.9
			c-0.9,1.7-1.4,2.9-1.4,2.9h25.4c67.2,0,121.7-67.5,121.7-150.8C1141.7,282.7,1087.2,215.1,1020,215.1z"/>
		<path class="st11" d="M1116.3,365.9c0,83.3-54.5,150.8-121.7,150.8c-67.2,0-121.7-67.5-121.7-150.8c0-83.3,54.5-150.8,121.7-150.8
			C1061.8,215.1,1116.3,282.7,1116.3,365.9z"/>
		<path class="st10" d="M983.3,236.5h-21.8c0.5,0.9,0.9,1.7,1.4,2.5c-47.9,11.8-84.1,64.1-84.1,127c0,62.7,36,115.1,83.9,126.9
			c-0.8,1.4-1.2,2.5-1.2,2.5h21.8c57.7,0,104.5-58,104.5-129.4C1087.8,294.5,1041.1,236.5,983.3,236.5z"/>
		<path class="st11" d="M1066,365.9c0,71.5-46.8,129.4-104.5,129.4c-57.7,0-104.5-58-104.5-129.4c0-71.5,46.8-129.4,104.5-129.4
			C1019.2,236.5,1066,294.5,1066,365.9z"/>
		<path class="st13" d="M1514,826.5c-32.3,1.2-56-23.8-56.7-24.6c28.3,18.2,55.7,13.9,55.7,13.9C1513.3,819,1513.6,822.8,1514,826.5
			z"/>
	</g>
</g>
</svg>
